# xmcd
#
# Track frame offsets: 
#        150
#        16682
#        32947
#        46339
#        59244
#        73687
#        83645
#        97493
#        109353
#        127161
#        155469
#        174502
#        186058
#        203403
#        215953
#        229317
#        243094
#        257899
#        271649
#        288245
#
# Disc length: 4044 seconds
#
# Revision: 0
# Processed by: cddbd v1.5.2PL0 Copyright (c) Steve Scherf et al.
# Submitted via: ExactAudioCopyFreeDBPlugin 1.0
#
DISCID=2b0fca14
DTITLE=Ray Charles - Best of Ray Charles
DYEAR=2006
DGENRE=Blues
TTITLE0=Georgia on my mind
TTITLE1=Your Cheatin´ heart
TTITLE2=Cryin´ time
TTITLE3=My heart cries for you
TTITLE4=Hide nor hair
TTITLE5=Busted
TTITLE6=Chattanooga Choo Choo
TTITLE7=Don´t set me free
TTITLE8=Careless love
TTITLE9=Rainy night in Georgia
TTITLE10=Over the rainbow
TTITLE11=I don´t need no doctor
TTITLE12=If you were mine
TTITLE13=Unchain my heart
TTITLE14=Let´s go get stoned
TTITLE15=Moonlight in Vermont
TTITLE16=Born to loose
TTITLE17=You are my sunshine
TTITLE18=Eleanor Rigby live
TTITLE19=Moon over Miami
EXTD=
EXTT0=
EXTT1=
EXTT2=
EXTT3=
EXTT4=
EXTT5=
EXTT6=
EXTT7=
EXTT8=
EXTT9=
EXTT10=
EXTT11=
EXTT12=
EXTT13=
EXTT14=
EXTT15=
EXTT16=
EXTT17=
EXTT18=
EXTT19=
PLAYORDER=
